<svg height="512" viewBox="0 0 512 512" width="512" xmlns="http://www.w3.org/2000/svg" xmlns:xlink="http://www.w3.org/1999/xlink"><linearGradient id="a" gradientUnits="userSpaceOnUse" x1="-5.006" x2="529.55" y1="481.006" y2="-53.55"><stop offset="0" stop-color="#003f8a"/><stop offset=".518" stop-color="#00d7df"/><stop offset="1" stop-color="#006df0"/></linearGradient><linearGradient id="b" x1="8.994" x2="543.55" xlink:href="#a" y1="495.006" y2="-39.55"/><linearGradient id="d" x1="-39.276" x2="495.281" xlink:href="#a" y1="446.737" y2="-87.82"/><linearGradient id="e" x1="-121.006" x2="413.55" xlink:href="#a" y1="365.006" y2="-169.55"/><linearGradient id="f" x1="-115.006" x2="419.55" xlink:href="#a" y1="371.006" y2="-163.55"/><linearGradient id="g" x1="-25.006" x2="509.55" xlink:href="#a" y1="461.006" y2="-73.55"/><linearGradient id="h" x1="5.843" x2="540.4" xlink:href="#a" y1="491.856" y2="-42.701"/><linearGradient id="i" x1="6.334" x2="540.891" xlink:href="#a" y1="492.347" y2="-42.21"/><linearGradient id="j" x1="6.333" x2="540.89" xlink:href="#a" y1="492.346" y2="-42.211"/><g><path d="m376 48h-352a8 8 0 0 0 -8 8v440a8 8 0 0 0 8 8h352a8 8 0 0 0 8-8v-440a8 8 0 0 0 -8-8zm-8 440h-336v-16h336zm0-32h-336v-304h336zm0-320h-336v-72h336z" fill="url(#a)"/><path d="m200 160c-79.4 0-144 64.6-144 144s64.6 144 144 144 144-64.6 144-144-64.6-144-144-144zm0 272a128 128 0 1 1 128-128 128.144 128.144 0 0 1 -128 128z" fill="url(#b)"/><path d="m200 184a120 120 0 1 0 120 120 120.136 120.136 0 0 0 -120-120zm0 224a104 104 0 1 1 104-104 104.118 104.118 0 0 1 -104 104z" fill="url(#b)"/><path d="m200 216a88.1 88.1 0 0 0 -88 88 8 8 0 0 0 16 0 72.081 72.081 0 0 1 72-72 8 8 0 0 0 0-16z" fill="url(#d)"/><path d="m48 184h40a8 8 0 0 0 0-16h-40a8 8 0 0 0 0 16z" fill="url(#e)"/><path d="m72 200a8 8 0 0 0 -8-8h-16a8 8 0 0 0 0 16h16a8 8 0 0 0 8-8z" fill="url(#f)"/><path d="m320 128h32a8 8 0 0 0 8-8v-40a8 8 0 0 0 -8-8h-32a8 8 0 0 0 -8 8v40a8 8 0 0 0 8 8zm8-40h16v24h-16z" fill="url(#g)"/><path d="m450.2 48.478a55.785 55.785 0 0 0 -37.768-16.37 8 8 0 0 0 -.518 15.992 39.992 39.992 0 0 1 38.586 37.1 8 8 0 0 0 7.972 7.431c.19 0 .383-.007.577-.021a8 8 0 0 0 7.41-8.549 55.965 55.965 0 0 0 -16.259-35.583z" fill="url(#h)"/><path d="m490.476 83.646a79.989 79.989 0 0 0 -75.432-75.44 8 8 0 1 0 -.883 15.975 63.989 63.989 0 0 1 60.339 60.345 8 8 0 0 0 7.981 7.56c.148 0 .3 0 .448-.012a8 8 0 0 0 7.547-8.428z" fill="url(#i)"/><path d="m415.805 58.874a24 24 0 1 0 16.969 40.971 24 24 0 0 0 -16.97-40.97zm5.657 29.656a8 8 0 1 1 2.344-5.657 7.947 7.947 0 0 1 -2.345 5.658z" fill="url(#j)"/></g></svg>